<mxfile host="app.diagrams.net" modified="2023-03-07T11:53:26.240Z" agent="5.0 (Windows NT 10.0; Win64; x64) AppleWebKit/537.36 (KHTML, like Gecko) Chrome/110.0.0.0 Safari/537.36" etag="aU3eQvYL7uzADkQzwzZN" version="21.0.2" type="github">
  <diagram id="C5RBs43oDa-KdzZeNtuy" name="Page-1">
    <mxGraphModel dx="1434" dy="764" grid="1" gridSize="10" guides="1" tooltips="1" connect="1" arrows="1" fold="1" page="1" pageScale="1" pageWidth="827" pageHeight="1169" math="0" shadow="0">
      <root>
        <mxCell id="WIyWlLk6GJQsqaUBKTNV-0" />
        <mxCell id="WIyWlLk6GJQsqaUBKTNV-1" parent="WIyWlLk6GJQsqaUBKTNV-0" />
        <mxCell id="unKlmQPZC9v0Xo7Pi_is-8" style="edgeStyle=orthogonalEdgeStyle;rounded=0;orthogonalLoop=1;jettySize=auto;html=1;exitX=0.5;exitY=1;exitDx=0;exitDy=0;exitPerimeter=0;entryX=0.5;entryY=0;entryDx=0;entryDy=0;" edge="1" parent="WIyWlLk6GJQsqaUBKTNV-1" source="unKlmQPZC9v0Xo7Pi_is-1" target="unKlmQPZC9v0Xo7Pi_is-4">
          <mxGeometry relative="1" as="geometry" />
        </mxCell>
        <mxCell id="unKlmQPZC9v0Xo7Pi_is-1" value="Start" style="strokeWidth=2;html=1;shape=mxgraph.flowchart.start_1;whiteSpace=wrap;" vertex="1" parent="WIyWlLk6GJQsqaUBKTNV-1">
          <mxGeometry x="120" y="90" width="100" height="20" as="geometry" />
        </mxCell>
        <mxCell id="unKlmQPZC9v0Xo7Pi_is-2" value="Load / Create a save file of the user data&lt;br&gt;" style="shape=cylinder3;whiteSpace=wrap;html=1;boundedLbl=1;backgroundOutline=1;size=15;" vertex="1" parent="WIyWlLk6GJQsqaUBKTNV-1">
          <mxGeometry x="330" y="130" width="60" height="80" as="geometry" />
        </mxCell>
        <mxCell id="unKlmQPZC9v0Xo7Pi_is-9" style="edgeStyle=orthogonalEdgeStyle;rounded=0;orthogonalLoop=1;jettySize=auto;html=1;exitX=1;exitY=0.5;exitDx=0;exitDy=0;entryX=0;entryY=0.5;entryDx=0;entryDy=0;entryPerimeter=0;" edge="1" parent="WIyWlLk6GJQsqaUBKTNV-1" source="unKlmQPZC9v0Xo7Pi_is-4" target="unKlmQPZC9v0Xo7Pi_is-2">
          <mxGeometry relative="1" as="geometry" />
        </mxCell>
        <mxCell id="unKlmQPZC9v0Xo7Pi_is-11" style="edgeStyle=orthogonalEdgeStyle;rounded=0;orthogonalLoop=1;jettySize=auto;html=1;exitX=0.5;exitY=1;exitDx=0;exitDy=0;entryX=0.5;entryY=0;entryDx=0;entryDy=0;" edge="1" parent="WIyWlLk6GJQsqaUBKTNV-1" source="unKlmQPZC9v0Xo7Pi_is-4">
          <mxGeometry relative="1" as="geometry">
            <mxPoint x="170" y="290" as="targetPoint" />
          </mxGeometry>
        </mxCell>
        <mxCell id="unKlmQPZC9v0Xo7Pi_is-4" value="Take username of the player" style="rounded=1;whiteSpace=wrap;html=1;absoluteArcSize=1;arcSize=14;strokeWidth=2;" vertex="1" parent="WIyWlLk6GJQsqaUBKTNV-1">
          <mxGeometry x="120" y="180" width="100" height="40" as="geometry" />
        </mxCell>
        <mxCell id="unKlmQPZC9v0Xo7Pi_is-14" value="" style="edgeStyle=orthogonalEdgeStyle;rounded=0;orthogonalLoop=1;jettySize=auto;html=1;" edge="1" parent="WIyWlLk6GJQsqaUBKTNV-1" source="unKlmQPZC9v0Xo7Pi_is-12" target="unKlmQPZC9v0Xo7Pi_is-13">
          <mxGeometry relative="1" as="geometry" />
        </mxCell>
        <mxCell id="unKlmQPZC9v0Xo7Pi_is-12" value="first location passed" style="strokeWidth=2;html=1;shape=mxgraph.flowchart.decision;whiteSpace=wrap;" vertex="1" parent="WIyWlLk6GJQsqaUBKTNV-1">
          <mxGeometry x="120" y="290" width="100" height="100" as="geometry" />
        </mxCell>
        <mxCell id="unKlmQPZC9v0Xo7Pi_is-13" value="" style="whiteSpace=wrap;html=1;strokeWidth=2;" vertex="1" parent="WIyWlLk6GJQsqaUBKTNV-1">
          <mxGeometry x="290" y="310" width="120" height="60" as="geometry" />
        </mxCell>
      </root>
    </mxGraphModel>
  </diagram>
</mxfile>
